<?xml version="1.0" standalone="no"?>
<svg xmlns:xlink="http://www.w3.org/1999/xlink" id="wave" style="transform:rotate(0deg); transition: 0.3s" viewBox="0 0 1440 100" version="1.1" xmlns="http://www.w3.org/2000/svg"><defs><linearGradient id="sw-gradient-0" x1="0" x2="0" y1="1" y2="0"><stop stop-color="rgba(241, 239, 239, 1)" offset="0%"/><stop stop-color="rgba(241, 239, 239, 1)" offset="100%"/></linearGradient></defs><path style="transform:translate(0, 0px); opacity:1" fill="url(#sw-gradient-0)" d="M0,20L26.7,23.3C53.3,27,107,33,160,35C213.3,37,267,33,320,33.3C373.3,33,427,37,480,45C533.3,53,587,67,640,63.3C693.3,60,747,40,800,36.7C853.3,33,907,47,960,53.3C1013.3,60,1067,60,1120,60C1173.3,60,1227,60,1280,51.7C1333.3,43,1387,27,1440,25C1493.3,23,1547,37,1600,38.3C1653.3,40,1707,30,1760,30C1813.3,30,1867,40,1920,36.7C1973.3,33,2027,17,2080,23.3C2133.3,30,2187,60,2240,66.7C2293.3,73,2347,57,2400,45C2453.3,33,2507,27,2560,35C2613.3,43,2667,67,2720,70C2773.3,73,2827,57,2880,53.3C2933.3,50,2987,60,3040,66.7C3093.3,73,3147,77,3200,65C3253.3,53,3307,27,3360,28.3C3413.3,30,3467,60,3520,75C3573.3,90,3627,90,3680,80C3733.3,70,3787,50,3813,40L3840,30L3840,100L3813.3,100C3786.7,100,3733,100,3680,100C3626.7,100,3573,100,3520,100C3466.7,100,3413,100,3360,100C3306.7,100,3253,100,3200,100C3146.7,100,3093,100,3040,100C2986.7,100,2933,100,2880,100C2826.7,100,2773,100,2720,100C2666.7,100,2613,100,2560,100C2506.7,100,2453,100,2400,100C2346.7,100,2293,100,2240,100C2186.7,100,2133,100,2080,100C2026.7,100,1973,100,1920,100C1866.7,100,1813,100,1760,100C1706.7,100,1653,100,1600,100C1546.7,100,1493,100,1440,100C1386.7,100,1333,100,1280,100C1226.7,100,1173,100,1120,100C1066.7,100,1013,100,960,100C906.7,100,853,100,800,100C746.7,100,693,100,640,100C586.7,100,533,100,480,100C426.7,100,373,100,320,100C266.7,100,213,100,160,100C106.7,100,53,100,27,100L0,100Z"/></svg>