<?xml version="1.0" standalone="no"?>
<svg xmlns:xlink="http://www.w3.org/1999/xlink" id="wave" style="transform:rotate(180deg); transition: 0.3s" viewBox="0 0 1440 170" version="1.1" xmlns="http://www.w3.org/2000/svg"><defs><linearGradient id="sw-gradient-0" x1="0" x2="0" y1="1" y2="0"><stop stop-color="rgba(23, 162, 184, 1)" offset="0%"/><stop stop-color="rgba(23, 162, 184, 1)" offset="100%"/></linearGradient></defs><path style="transform:translate(0, 0px); opacity:1" fill="url(#sw-gradient-0)" d="M0,68L34.3,65.2C68.6,62,137,57,206,68C274.3,79,343,108,411,124.7C480,142,549,147,617,130.3C685.7,113,754,74,823,51C891.4,28,960,23,1029,34C1097.1,45,1166,74,1234,93.5C1302.9,113,1371,125,1440,124.7C1508.6,125,1577,113,1646,107.7C1714.3,102,1783,102,1851,110.5C1920,119,1989,136,2057,121.8C2125.7,108,2194,62,2263,36.8C2331.4,11,2400,6,2469,5.7C2537.1,6,2606,11,2674,17C2742.9,23,2811,28,2880,42.5C2948.6,57,3017,79,3086,93.5C3154.3,108,3223,113,3291,107.7C3360,102,3429,85,3497,90.7C3565.7,96,3634,125,3703,127.5C3771.4,130,3840,108,3909,107.7C3977.1,108,4046,130,4114,121.8C4182.9,113,4251,74,4320,70.8C4388.6,68,4457,102,4526,116.2C4594.3,130,4663,125,4731,113.3C4800,102,4869,85,4903,76.5L4937.1,68L4937.1,170L4902.9,170C4868.6,170,4800,170,4731,170C4662.9,170,4594,170,4526,170C4457.1,170,4389,170,4320,170C4251.4,170,4183,170,4114,170C4045.7,170,3977,170,3909,170C3840,170,3771,170,3703,170C3634.3,170,3566,170,3497,170C3428.6,170,3360,170,3291,170C3222.9,170,3154,170,3086,170C3017.1,170,2949,170,2880,170C2811.4,170,2743,170,2674,170C2605.7,170,2537,170,2469,170C2400,170,2331,170,2263,170C2194.3,170,2126,170,2057,170C1988.6,170,1920,170,1851,170C1782.9,170,1714,170,1646,170C1577.1,170,1509,170,1440,170C1371.4,170,1303,170,1234,170C1165.7,170,1097,170,1029,170C960,170,891,170,823,170C754.3,170,686,170,617,170C548.6,170,480,170,411,170C342.9,170,274,170,206,170C137.1,170,69,170,34,170L0,170Z"/></svg>