<?xml version="1.0" standalone="no"?>
<svg xmlns:xlink="http://www.w3.org/1999/xlink" id="wave" style="transform:rotate(0deg); transition: 0.3s" viewBox="0 0 1440 150" version="1.1" xmlns="http://www.w3.org/2000/svg"><defs><linearGradient id="sw-gradient-0" x1="0" x2="0" y1="1" y2="0"><stop stop-color="rgba(108, 117, 125, 1)" offset="0%"/><stop stop-color="rgba(108, 117, 125, 1)" offset="100%"/></linearGradient></defs><path style="transform:translate(0, 0px); opacity:1" fill="url(#sw-gradient-0)" d="M0,0L40,22.5C80,45,160,90,240,107.5C320,125,400,115,480,107.5C560,100,640,95,720,97.5C800,100,880,110,960,110C1040,110,1120,100,1200,87.5C1280,75,1360,60,1440,57.5C1520,55,1600,65,1680,77.5C1760,90,1840,105,1920,110C2000,115,2080,110,2160,112.5C2240,115,2320,125,2400,130C2480,135,2560,135,2640,125C2720,115,2800,95,2880,90C2960,85,3040,95,3120,87.5C3200,80,3280,55,3360,47.5C3440,40,3520,50,3600,47.5C3680,45,3760,30,3840,42.5C3920,55,4000,95,4080,110C4160,125,4240,115,4320,95C4400,75,4480,45,4560,30C4640,15,4720,15,4800,32.5C4880,50,4960,85,5040,95C5120,105,5200,90,5280,90C5360,90,5440,105,5520,112.5C5600,120,5680,120,5720,120L5760,120L5760,150L5720,150C5680,150,5600,150,5520,150C5440,150,5360,150,5280,150C5200,150,5120,150,5040,150C4960,150,4880,150,4800,150C4720,150,4640,150,4560,150C4480,150,4400,150,4320,150C4240,150,4160,150,4080,150C4000,150,3920,150,3840,150C3760,150,3680,150,3600,150C3520,150,3440,150,3360,150C3280,150,3200,150,3120,150C3040,150,2960,150,2880,150C2800,150,2720,150,2640,150C2560,150,2480,150,2400,150C2320,150,2240,150,2160,150C2080,150,2000,150,1920,150C1840,150,1760,150,1680,150C1600,150,1520,150,1440,150C1360,150,1280,150,1200,150C1120,150,1040,150,960,150C880,150,800,150,720,150C640,150,560,150,480,150C400,150,320,150,240,150C160,150,80,150,40,150L0,150Z"/></svg>